<?xml version="1.0" encoding="utf-8"?>
<!-- Generator: Adobe Illustrator 23.0.3, SVG Export Plug-In . SVG Version: 6.00 Build 0)  -->
<svg version="1.1" id="Layer_1" xmlns="http://www.w3.org/2000/svg" xmlns:xlink="http://www.w3.org/1999/xlink" x="0px" y="0px"
	 viewBox="0 0 1000 1000" style="enable-background:new 0 0 1000 1000;" xml:space="preserve">
<style type="text/css">
	.st0{fill:#CE9524;}
	.st1{fill:#192C4C;}
</style>
<g>
	<g>
		<g>
			<path class="st0" d="M323.23,303.51c-27.6,0-50.05,22.45-50.05,50.05c0,27.6,22.45,50.05,50.05,50.05
				c27.6,0,50.05-22.45,50.05-50.05S350.83,303.51,323.23,303.51z M323.23,388.09c-19.04,0-34.52-15.49-34.52-34.52
				c0-19.04,15.49-34.52,34.52-34.52c19.04,0,34.52,15.49,34.52,34.52C357.75,372.6,342.27,388.09,323.23,388.09z"/>
		</g>
	</g>
	<g>
		<g>
			<path class="st0" d="M323.23,265.23c-4.29,0-7.76,3.47-7.76,7.76v15.61c0,4.29,3.47,7.76,7.76,7.76c4.29,0,7.76-3.47,7.76-7.76
				v-15.61C330.99,268.71,327.52,265.23,323.23,265.23z"/>
		</g>
	</g>
	<g>
		<g>
			<path class="st0" d="M385.69,291.1c-3.03-3.03-7.95-3.03-10.98,0l-11.04,11.04c-3.03,3.03-3.03,7.95,0,10.98
				c1.52,1.52,3.5,2.27,5.49,2.27c1.99,0,3.97-0.76,5.49-2.27l11.04-11.04C388.72,299.05,388.72,294.13,385.69,291.1z"/>
		</g>
	</g>
	<g>
		<g>
			<path class="st0" d="M403.8,345.8h-15.61c-4.29,0-7.76,3.47-7.76,7.76s3.47,7.76,7.76,7.76h15.61c4.29,0,7.76-3.47,7.76-7.76
				S408.09,345.8,403.8,345.8z"/>
		</g>
	</g>
	<g>
		<g>
			<path class="st0" d="M385.69,405.04L374.65,394c-3.03-3.03-7.95-3.03-10.98,0s-3.03,7.95,0,10.98l11.04,11.04
				c1.52,1.52,3.5,2.27,5.49,2.27s3.97-0.76,5.49-2.27C388.72,412.99,388.72,408.08,385.69,405.04z"/>
		</g>
	</g>
	<g>
		<g>
			<path class="st0" d="M323.23,410.76c-4.29,0-7.76,3.47-7.76,7.76v15.61c0,4.29,3.47,7.76,7.76,7.76c4.29,0,7.76-3.47,7.76-7.76
				v-15.61C330.99,414.23,327.52,410.76,323.23,410.76z"/>
		</g>
	</g>
	<g>
		<g>
			<path class="st0" d="M282.79,394c-3.03-3.03-7.95-3.03-10.98,0l-11.04,11.04c-3.03,3.03-3.03,7.95,0,10.98
				c1.52,1.52,3.5,2.27,5.49,2.27c1.99,0,3.97-0.76,5.49-2.27l11.04-11.04C285.82,401.95,285.82,397.03,282.79,394z"/>
		</g>
	</g>
	<g>
		<g>
			<path class="st0" d="M258.27,345.8h-15.61c-4.29,0-7.76,3.47-7.76,7.76s3.47,7.76,7.76,7.76h15.61c4.29,0,7.76-3.47,7.76-7.76
				S262.56,345.8,258.27,345.8z"/>
		</g>
	</g>
	<g>
		<g>
			<path class="st0" d="M282.79,302.14l-11.04-11.04c-3.03-3.03-7.95-3.03-10.98,0s-3.03,7.95,0,10.98l11.04,11.04
				c1.52,1.52,3.5,2.27,5.49,2.27c1.99,0,3.97-0.76,5.49-2.27C285.82,310.09,285.82,305.17,282.79,302.14z"/>
		</g>
	</g>
	<g>
		<g>
			<path class="st1" d="M759.24,705.71c-13.53-9.18-29.21-13.33-44.7-12.49c-14.3-19.69-41.27-36.58-78.42-49.02
				c-23.06-7.72-48.8-13.3-76.17-16.61l55.61-139.53c8.39,6.06,15.71,13.26,21.7,21.4c1.98,2.69,5.03,4.22,8.4,3.4
				c18.37-3.33,37.84-1.2,56.35,6.18c18.64,7.43,34.34,19.4,45.39,34.61c1.48,2.04,3.83,3.2,6.28,3.2c0.62,0,1.25-0.07,1.87-0.23
				c3.07-0.76,5.37-3.31,5.82-6.43c0.29-2.05,7.01-50.91-9-104.14c-1.23-4.11-5.57-6.43-9.67-5.2c-4.11,1.23-6.43,5.56-5.2,9.67
				c9.34,31.07,10.37,61.11,9.79,79.44c-11.08-10.72-24.49-19.34-39.54-25.34c-17.11-6.82-35.01-9.72-52.44-8.56
				c0.13-0.4,0.25-0.79,0.38-1.19c6.06-18.53,10.59-37.62,12.81-57.01c2.04-17.74,2.22-35.66-0.01-53.38
				c-1.29-10.27-3.49-20.42-6.65-30.28c-0.02-0.07-0.05-0.15-0.07-0.22c27.85,15.09,49.26,37.32,63.79,66.31
				c1.92,3.83,6.58,5.38,10.42,3.46s5.38-6.58,3.46-10.42c-19.26-38.42-49.48-66.05-89.85-82.14
				c-55.52-22.13-113.31-14.85-167.1,21.05c-40.16,26.79-63.67,59.66-64.65,61.04c-1.83,2.58-1.91,6.01-0.2,8.67
				c1.7,2.66,4.84,4.03,7.96,3.45c18.49-3.44,38.12-1.33,56.76,6.1c18.37,7.32,33.88,19.05,44.91,33.95
				c2.15,2.9,5.27,4.68,8.95,3.59c9.86-1.75,20.03-1.92,30.19-0.56l-62.01,155.6c-1.56-0.01-3.12-0.04-4.69-0.04
				c-35.77,0-69.96,3.56-101.62,10.59c-4.18,0.93-6.82,5.07-5.89,9.26c0.93,4.18,5.07,6.83,9.26,5.89
				c30.12-6.69,64.1-10.22,98.25-10.22c16.19,0,32.39,0.77,48.5,2.37c0.06,0.01,0.11,0,0.17,0.01c29.96,2.97,58.04,8.69,82.82,16.99
				c29.59,9.91,52.43,22.97,65.84,37.44c-6.76,2.1-13.31,5.22-19.41,9.35c-19.5,13.22-44.7,13.22-64.2,0
				c-24.8-16.82-56.84-16.81-81.63,0c-19.5,13.22-44.7,13.22-64.2,0c-24.79-16.82-56.83-16.81-81.63,0
				c-19.5,13.22-44.7,13.22-64.2,0c-6.1-4.14-12.64-7.25-19.41-9.35c13.39-14.45,36.19-27.5,65.72-37.4
				c4.06-1.36,6.25-5.76,4.89-9.83c-1.36-4.06-5.76-6.25-9.83-4.89c-37.09,12.44-64.02,29.31-78.3,48.98
				c-15.49-0.84-31.17,3.32-44.7,12.49c-3.55,2.41-4.47,7.23-2.07,10.78c2.41,3.55,7.23,4.47,10.78,2.07
				c11.52-7.81,25.03-11.01,38.18-9.59c0.47,0.1,0.95,0.17,1.43,0.18c8.61,1.15,17.03,4.28,24.59,9.41
				c24.79,16.81,56.83,16.82,81.63,0c19.5-13.23,44.7-13.22,64.2,0c24.79,16.81,56.83,16.82,81.63,0c19.5-13.23,44.7-13.22,64.2,0
				c12.4,8.41,26.61,12.61,40.81,12.61c14.21,0,28.42-4.2,40.81-12.61c7.54-5.12,15.94-8.24,24.53-9.4
				c0.51-0.01,1.01-0.08,1.52-0.19c13.14-1.41,26.64,1.78,38.15,9.59c3.55,2.41,8.38,1.48,10.78-2.07
				C763.72,712.94,762.79,708.11,759.24,705.71z M546.73,452.2c0.08-0.18,0.17-0.35,0.25-0.52c7.23-15.14,15.66-29.77,25.5-43.36
				c2.41-3.32,1.72-8.34-1.74-10.84c-3.38-2.45-8.4-1.63-10.84,1.74c-7.9,10.92-14.92,22.47-21.22,34.38
				c-2.28,4.3-4.59,8.66-6.54,13.12c-0.03,0.07-0.07,0.14-0.1,0.22c-11.86-12.83-26.84-23.04-43.96-29.86
				c-15.06-6-30.73-8.96-46.14-8.8c10.36-11.65,27.39-28.67,49.55-43.39c21.97-14.6,44.65-24.12,67.41-28.32
				c22.01-4.06,44.23-3.11,66.27,2.82c-0.09,0.05-0.18,0.1-0.27,0.15c-11.92,6.54-22.98,14.62-33.02,23.79
				c-3.92,3.58-7.73,7.25-11.39,11.09c-2.96,3.1-2.84,8.02,0.26,10.97s8.02,2.84,10.97-0.26c9.95-10.44,21.18-19.98,33.45-27.7
				c5.65-3.56,11.55-6.77,17.71-9.36c1.62,3.67,3.72,9.11,5.7,16.22c9.36,33.72,6.83,70.1-1.37,103.77
				c-1.76,7.24-3.8,14.42-6.12,21.5c-0.02,0.07-0.05,0.15-0.07,0.22c-10.56-11.17-23.53-20.3-38.22-26.87
				c-0.2-0.09-0.4-0.18-0.6-0.27C584.83,454.98,565.72,451.15,546.73,452.2z M543.9,625.91c-3.6-0.31-7.22-0.58-10.87-0.81
				c-4.03-0.28-8.06-0.48-12.1-0.64l60.88-152.74c3.68,1.06,7.31,2.31,10.86,3.75c0.58,0.23,9.47,4.31,9.45,4.35L543.9,625.91z"/>
		</g>
	</g>
</g>
</svg>
