<?xml version="1.0" encoding="utf-8"?>
<!-- Generator: Adobe Illustrator 23.0.3, SVG Export Plug-In . SVG Version: 6.00 Build 0)  -->
<svg version="1.1" id="Layer_1" xmlns="http://www.w3.org/2000/svg" xmlns:xlink="http://www.w3.org/1999/xlink" x="0px" y="0px"
	 viewBox="0 0 1000 1000" style="enable-background:new 0 0 1000 1000;" xml:space="preserve">
<style type="text/css">
	.st0{fill:#CE9524;}
	.st1{fill:#192C4C;}
</style>
<g>
	<g>
		<g>
			<path class="st0" d="M439.99,300.23c-5.6,0-10.15,4.55-10.15,10.15s4.55,10.15,10.15,10.15s10.15-4.55,10.15-10.15
				S445.6,300.23,439.99,300.23z"/>
		</g>
	</g>
	<g>
		<g>
			<path class="st0" d="M500.89,381.43c-5.6,0-10.15-4.55-10.15-10.15s4.55-10.15,10.15-10.15c3.6,0,7.39,1.83,10.98,5.31
				c4.03,3.9,10.45,3.79,14.35-0.24c3.9-4.03,3.79-10.45-0.24-14.35c-5.15-4.98-10.31-7.8-14.94-9.34v-11.82
				c0-5.61-4.55-10.15-10.15-10.15s-10.15,4.54-10.15,10.15v11.9c-11.81,4.19-20.3,15.47-20.3,28.7c0,16.79,13.66,30.45,30.45,30.45
				c5.6,0,10.15,4.55,10.15,10.15s-4.55,10.15-10.15,10.15c-4.34,0-9.02-2.73-13.18-7.68c-3.61-4.29-10.01-4.84-14.3-1.24
				c-4.29,3.61-4.84,10.01-1.24,14.3c5.43,6.45,11.81,10.95,18.57,13.22v11.85c0,5.61,4.55,10.15,10.15,10.15
				s10.15-4.54,10.15-10.15v-11.9c11.81-4.19,20.3-15.47,20.3-28.7C531.34,395.09,517.68,381.43,500.89,381.43z"/>
		</g>
	</g>
	<g>
		<g>
			<path class="st1" d="M720.13,387.52c-22.39,0-40.6,18.21-40.6,40.6v72.34c-13.48-3.47-28.36,0.11-38.85,10.61l-68.07,68.07
				c-9.59,9.58-14.87,22.33-14.87,35.9v59.73h-10.15c-5.6,0-10.15,4.54-10.15,10.15v63.94c0,5.61,4.55,10.15,10.15,10.15h142.1
				c5.6,0,10.15-4.54,10.15-10.15v-63.94c0-5.61-4.55-10.15-10.15-10.15h-10.15v-4.79c0-2.67,1.08-5.28,2.98-7.17l63.36-63.36
				c9.59-9.59,14.87-22.33,14.87-35.89V428.12C760.73,405.73,742.51,387.52,720.13,387.52z M679.53,738.7h-121.8v-43.64h121.8V738.7
				z M740.43,563.55c0,8.13-3.17,15.78-8.92,21.54l-63.36,63.36c-5.67,5.67-8.92,13.52-8.92,21.53v4.79h-81.2v-59.73
				c0-8.14,3.17-15.79,8.92-21.54l68.07-68.07c7.62-7.62,19.86-7.96,27.86-0.78c0.06,0.05,0.12,0.1,0.17,0.15
				c0.23,0.2,0.45,0.41,0.67,0.63c3.83,3.83,5.95,8.93,5.95,14.35s-2.11,10.52-5.95,14.35l-50.43,50.43
				c-3.96,3.96-3.96,10.39,0,14.35c3.96,3.96,10.39,3.96,14.35,0l50.43-50.43c7.67-7.67,11.9-17.86,11.9-28.71
				c0-9.99-3.59-19.42-10.15-26.84v-84.81c0-11.19,9.11-20.3,20.3-20.3c11.19,0,20.3,9.11,20.3,20.3V563.55z"/>
		</g>
	</g>
	<g>
		<g>
			<path class="st1" d="M454.2,674.76h-10.15v-59.73c0-13.57-5.28-26.32-14.87-35.89l-68.07-68.07
				c-10.49-10.49-25.37-14.08-38.86-10.61v-72.34c0-22.39-18.21-40.6-40.6-40.6c-22.39,0-40.6,18.21-40.6,40.6v135.43
				c0,13.56,5.28,26.3,14.87,35.89l63.36,63.35c1.89,1.89,2.98,4.51,2.98,7.18v4.79h-10.15c-5.6,0-10.15,4.54-10.15,10.15v63.94
				c0,5.61,4.55,10.15,10.15,10.15h142.1c5.6,0,10.15-4.54,10.15-10.15v-63.94C464.35,679.3,459.81,674.76,454.2,674.76z
				 M270.28,585.08c-5.75-5.75-8.92-13.4-8.92-21.54V428.12c0-11.19,9.11-20.3,20.3-20.3s20.3,9.11,20.3,20.3v84.81
				c-6.56,7.42-10.15,16.85-10.15,26.84c0,10.85,4.23,21.04,11.89,28.7l50.75,50.75c3.96,3.96,10.39,3.96,14.35,0
				c3.96-3.96,3.96-10.39,0-14.35l-50.75-50.75c-3.83-3.83-5.95-8.93-5.95-14.35s2.11-10.52,5.94-14.35
				c0.22-0.22,0.44-0.43,0.67-0.63l0.17-0.15c8-7.18,20.24-6.84,27.86,0.78l68.08,68.08c5.75,5.74,8.92,13.39,8.92,21.53v59.73
				h-81.2v-4.79c0-8.01-3.25-15.86-8.92-21.53L270.28,585.08z M444.05,738.7h-121.8v-43.64h121.8V738.7z"/>
		</g>
	</g>
	<g>
		<g>
			<path class="st0" d="M500.89,239.33c-83.95,0-152.25,68.3-152.25,152.25s68.3,152.25,152.25,152.25s152.25-68.3,152.25-152.25
				S584.84,239.33,500.89,239.33z M500.89,523.52c-72.76,0-131.95-59.19-131.95-131.95s59.19-131.95,131.95-131.95
				s131.95,59.19,131.95,131.95S573.65,523.52,500.89,523.52z"/>
		</g>
	</g>
	<g>
		<g>
			<path class="st0" d="M570.98,304.66c-26.41-21.32-60.98-29.37-94.82-22.07c-5.48,1.18-8.96,6.58-7.78,12.06
				c1.18,5.48,6.58,8.96,12.06,7.78c27.82-6,56.17,0.57,77.79,18.02c21.61,17.45,34.01,43.37,34.01,71.12
				c0,50.37-40.98,91.35-91.35,91.35s-91.35-40.98-91.35-91.35c0-15.05,3.74-29.96,10.8-43.13c2.65-4.94,0.79-11.09-4.14-13.74
				c-4.94-2.65-11.09-0.79-13.74,4.14c-8.64,16.11-13.21,34.34-13.21,52.73c0,61.56,50.09,111.65,111.65,111.65
				s111.65-50.09,111.65-111.65C612.54,357.67,597.39,325.99,570.98,304.66z"/>
		</g>
	</g>
</g>
</svg>
