<?xml version="1.0" encoding="utf-8"?>
<!-- Generator: Adobe Illustrator 23.0.3, SVG Export Plug-In . SVG Version: 6.00 Build 0)  -->
<svg version="1.1" id="Layer_1" xmlns="http://www.w3.org/2000/svg" xmlns:xlink="http://www.w3.org/1999/xlink" x="0px" y="0px"
	 viewBox="0 0 940 242" style="enable-background:new 0 0 940 242;" xml:space="preserve">
<style type="text/css">
	.st0{fill:#FFFFFF;}
	.st1{fill:#CE9524;}
</style>
<g>
	<path class="st0" d="M46.77,47.22h28.47v63.5l55.29-15.32V47.22h28.47v150.85l-27.86-9.04l-0.61-68.45l-55.29-9.86v61.18
		l-28.47-8.47V47.22z"/>
	<path class="st0" d="M178.33,111.81c0-10.34,1.73-19.71,5.2-28.1c3.47-8.4,8.3-15.55,14.51-21.44c6.2-5.9,13.56-10.42,22.07-13.6
		c8.52-3.16,17.82-4.74,27.93-4.74c10.09,0,19.4,1.57,27.92,4.74c8.51,3.18,15.87,7.71,22.07,13.6c6.21,5.9,11.04,13.04,14.51,21.44
		c3.47,8.39,5.2,17.76,5.2,28.1s-1.74,19.71-5.2,28.1c-3.47,8.4-8.3,15.55-14.51,21.44c-6.2,5.91-13.57,10.44-22.07,13.6
		c-8.52,3.16-17.83,4.74-27.92,4.74c-10.11,0-19.41-1.57-27.93-4.74s-15.87-7.69-22.07-13.6c-6.21-5.9-11.04-13.04-14.51-21.44
		C180.06,131.52,178.33,122.15,178.33,111.81z M207.89,111.81c0,6.09,0.94,11.66,2.83,16.69c1.89,5.05,4.59,9.43,8.12,13.14
		c3.53,3.71,7.76,6.61,12.68,8.67c4.93,2.06,10.43,3.1,16.52,3.1c6.08,0,11.58-1.04,16.51-3.1c4.92-2.06,9.15-4.96,12.68-8.67
		c3.53-3.71,6.23-8.09,8.12-13.14c1.89-5.03,2.83-10.6,2.83-16.69c0-5.95-0.94-11.49-2.83-16.6s-4.59-9.52-8.12-13.23
		c-3.53-3.71-7.76-6.59-12.68-8.67c-4.93-2.06-10.43-3.1-16.51-3.1c-6.09,0-11.59,1.04-16.52,3.1c-4.92,2.08-9.15,4.96-12.68,8.67
		c-3.53,3.71-6.23,8.12-8.12,13.23S207.89,105.86,207.89,111.81z"/>
	<path class="st0" d="M330.15,111.81c0-10.34,1.73-19.71,5.2-28.1c3.47-8.4,8.3-15.55,14.51-21.44c6.2-5.9,13.56-10.42,22.07-13.6
		c8.52-3.16,17.82-4.74,27.93-4.74c10.09,0,19.4,1.57,27.92,4.74c8.51,3.18,15.87,7.71,22.07,13.6c6.21,5.9,11.04,13.04,14.51,21.44
		c3.47,8.39,5.2,17.76,5.2,28.1s-1.74,19.71-5.2,28.1c-3.47,8.4-8.3,15.55-14.51,21.44c-6.2,5.91-13.57,10.44-22.07,13.6
		c-8.52,3.16-17.83,4.74-27.92,4.74c-10.11,0-19.41-1.57-27.93-4.74c-8.52-3.16-15.87-7.69-22.07-13.6
		c-6.21-5.9-11.04-13.04-14.51-21.44C331.88,131.52,330.15,122.15,330.15,111.81z M359.71,111.81c0,6.09,0.94,11.66,2.83,16.69
		c1.89,5.05,4.59,9.43,8.12,13.14c3.53,3.71,7.76,6.61,12.68,8.67c4.93,2.06,10.43,3.1,16.52,3.1c6.08,0,11.58-1.04,16.51-3.1
		c4.92-2.06,9.15-4.96,12.68-8.67c3.53-3.71,6.23-8.09,8.12-13.14c1.89-5.03,2.83-10.6,2.83-16.69c0-5.95-0.94-11.49-2.83-16.6
		s-4.59-9.52-8.12-13.23c-3.53-3.71-7.76-6.59-12.68-8.67c-4.93-2.06-10.43-3.1-16.51-3.1c-6.09,0-11.59,1.04-16.52,3.1
		c-4.92,2.08-9.15,4.96-12.68,8.67s-6.23,8.12-8.12,13.23C360.65,100.32,359.71,105.86,359.71,111.81z"/>
	<path class="st1" d="M490,47.22h28.47v102.92h100.44v26.27H490V47.22z"/>
	<path class="st1" d="M748.35,126.59c0,7.66-1.16,14.73-3.47,21.18s-5.75,12.04-10.31,16.78c-4.57,4.75-10.25,8.46-17.06,11.14
		c-6.82,2.67-14.66,4.01-23.54,4.01c-9.01,0-16.91-1.34-23.72-4.01c-6.82-2.67-12.5-6.39-17.06-11.14
		c-4.56-4.74-8-10.34-10.31-16.78c-2.31-6.44-3.47-13.51-3.47-21.18V47.22h28.47v78.29c0,4.01,0.64,7.72,1.92,11.12
		c1.28,3.42,3.07,6.36,5.38,8.85c2.31,2.49,5.08,4.44,8.31,5.84c3.21,1.41,6.72,2.11,10.49,2.11c3.76,0,7.23-0.7,10.4-2.11
		c3.16-1.4,5.9-3.34,8.2-5.84c2.31-2.49,4.11-5.44,5.38-8.85c1.28-3.4,1.92-7.11,1.92-11.12V47.22h28.47V126.59z"/>
	<path class="st1" d="M806.74,108.89l-42.7-61.67h35.77l27.55,45.26l26.45-45.26h34.49l-41.79,61.14l46.72,68.06h-35.77l-31.57-52
		l-30.65,52h-33.76L806.74,108.89z"/>
</g>
</svg>
