<?xml version="1.0" encoding="utf-8"?>
<!-- Generator: Adobe Illustrator 23.0.3, SVG Export Plug-In . SVG Version: 6.00 Build 0)  -->
<svg version="1.1" id="Layer_1" xmlns="http://www.w3.org/2000/svg" xmlns:xlink="http://www.w3.org/1999/xlink" x="0px" y="0px"
	 viewBox="0 0 1000 1000" style="enable-background:new 0 0 1000 1000;" xml:space="preserve">
<style type="text/css">
	.st0{fill:#231F20;}
	.st1{fill:#FFFFFF;}
</style>
<g>
	<path class="st0" d="M697.1,736H302.9c-21.48,0-38.9-17.42-38.9-38.9V302.9c0-21.48,17.42-38.9,38.9-38.9h394.2
		c21.48,0,38.9,17.42,38.9,38.9v394.2C736,718.58,718.58,736,697.1,736z"/>
	<path class="st1" d="M317.34,557.77h25.78c2.99,0,6.01,0.21,9.03,0.63c3.03,0.42,5.74,1.27,8.15,2.54
		c2.41,1.27,4.36,3.04,5.86,5.32c1.5,2.28,2.25,5.31,2.25,9.08c0,3.91-1.09,7.14-3.27,9.72c-2.18,2.57-5.06,4.41-8.64,5.52v0.2
		c2.28,0.33,4.35,0.96,6.2,1.9c1.86,0.94,3.45,2.15,4.78,3.61c1.33,1.46,2.36,3.17,3.08,5.13c0.72,1.95,1.07,4.04,1.07,6.25
		c0,3.65-0.78,6.69-2.34,9.13c-1.56,2.44-3.58,4.41-6.05,5.91c-2.47,1.5-5.26,2.57-8.35,3.22c-3.09,0.65-6.17,0.98-9.23,0.98h-28.32
		V557.77z M332.57,585.41h11.03c1.17,0,2.33-0.13,3.47-0.39c1.14-0.26,2.16-0.68,3.08-1.27c0.91-0.59,1.64-1.37,2.2-2.34
		c0.55-0.98,0.83-2.15,0.83-3.51c0-1.43-0.31-2.62-0.93-3.57c-0.62-0.94-1.42-1.67-2.39-2.2c-0.98-0.52-2.08-0.89-3.32-1.12
		c-1.24-0.23-2.44-0.34-3.61-0.34h-10.35V585.41z M332.57,614.02h13.67c1.17,0,2.36-0.13,3.56-0.39c1.2-0.26,2.29-0.72,3.27-1.37
		c0.98-0.65,1.77-1.5,2.39-2.54c0.62-1.04,0.93-2.31,0.93-3.81c0-1.63-0.41-2.95-1.22-3.95c-0.81-1.01-1.84-1.77-3.08-2.3
		c-1.24-0.52-2.57-0.88-4-1.07c-1.43-0.2-2.77-0.29-4-0.29h-11.52V614.02z"/>
	<path class="st1" d="M376.9,592.34c0-5.53,0.93-10.55,2.78-15.04c1.86-4.49,4.44-8.32,7.76-11.47c3.32-3.16,7.26-5.58,11.82-7.27
		c4.56-1.69,9.54-2.54,14.94-2.54c5.4,0,10.38,0.85,14.94,2.54c4.56,1.69,8.5,4.12,11.82,7.27c3.32,3.16,5.91,6.98,7.76,11.47
		c1.86,4.49,2.78,9.51,2.78,15.04c0,5.53-0.93,10.55-2.78,15.04c-1.86,4.49-4.44,8.32-7.76,11.47c-3.32,3.16-7.26,5.58-11.82,7.28
		c-4.56,1.69-9.54,2.54-14.94,2.54c-5.4,0-10.38-0.85-14.94-2.54c-4.56-1.69-8.5-4.12-11.82-7.28c-3.32-3.16-5.91-6.98-7.76-11.47
		C377.83,602.89,376.9,597.87,376.9,592.34z M392.72,592.34c0,3.26,0.5,6.23,1.51,8.94c1.01,2.7,2.46,5.05,4.35,7.03
		c1.89,1.99,4.15,3.53,6.79,4.64c2.64,1.11,5.58,1.66,8.84,1.66c3.25,0,6.2-0.55,8.84-1.66c2.64-1.11,4.9-2.65,6.79-4.64
		c1.89-1.99,3.34-4.33,4.35-7.03c1.01-2.7,1.51-5.68,1.51-8.94c0-3.19-0.51-6.15-1.51-8.89c-1.01-2.73-2.46-5.09-4.35-7.08
		c-1.89-1.99-4.15-3.53-6.79-4.64c-2.64-1.11-5.58-1.66-8.84-1.66c-3.26,0-6.2,0.55-8.84,1.66c-2.64,1.11-4.9,2.65-6.79,4.64
		c-1.89,1.99-3.34,4.35-4.35,7.08C393.23,586.19,392.72,589.15,392.72,592.34z"/>
	<path class="st1" d="M458.15,592.34c0-5.53,0.93-10.55,2.78-15.04c1.86-4.49,4.44-8.32,7.76-11.47c3.32-3.16,7.26-5.58,11.82-7.27
		c4.56-1.69,9.54-2.54,14.94-2.54c5.4,0,10.38,0.85,14.94,2.54c4.56,1.69,8.5,4.12,11.82,7.27c3.32,3.16,5.91,6.98,7.76,11.47
		c1.86,4.49,2.78,9.51,2.78,15.04c0,5.53-0.93,10.55-2.78,15.04c-1.86,4.49-4.44,8.32-7.76,11.47c-3.32,3.16-7.26,5.58-11.82,7.28
		c-4.56,1.69-9.54,2.54-14.94,2.54c-5.4,0-10.38-0.85-14.94-2.54c-4.56-1.69-8.5-4.12-11.82-7.28c-3.32-3.16-5.91-6.98-7.76-11.47
		C459.08,602.89,458.15,597.87,458.15,592.34z M473.97,592.34c0,3.26,0.5,6.23,1.51,8.94c1.01,2.7,2.46,5.05,4.35,7.03
		c1.89,1.99,4.15,3.53,6.79,4.64c2.64,1.11,5.58,1.66,8.84,1.66c3.25,0,6.2-0.55,8.84-1.66c2.64-1.11,4.9-2.65,6.79-4.64
		c1.89-1.99,3.34-4.33,4.35-7.03c1.01-2.7,1.51-5.68,1.51-8.94c0-3.19-0.51-6.15-1.51-8.89c-1.01-2.73-2.46-5.09-4.35-7.08
		c-1.89-1.99-4.15-3.53-6.79-4.64c-2.64-1.11-5.58-1.66-8.84-1.66c-3.26,0-6.2,0.55-8.84,1.66c-2.64,1.11-4.9,2.65-6.79,4.64
		c-1.89,1.99-3.34,4.35-4.35,7.08C474.47,586.19,473.97,589.15,473.97,592.34z"/>
	<path class="st1" d="M543.69,557.77h15.23v28.71l26.85-28.71h19.92l-30.76,32.13l33.4,37.01h-21.29l-28.12-32.81v32.81h-15.23
		V557.77z"/>
	<path class="st1" d="M626.1,609.14h-6.61v8.12c0,0.67,0.03,1.28,0.1,1.83c0.07,0.55,0.22,1.03,0.45,1.43
		c0.23,0.4,0.59,0.71,1.08,0.93c0.48,0.22,1.13,0.33,1.93,0.33c0.4,0,0.93-0.04,1.58-0.12c0.65-0.08,1.14-0.28,1.48-0.58v6.26
		c-0.84,0.3-1.7,0.5-2.61,0.6c-0.9,0.1-1.79,0.15-2.66,0.15c-1.27,0-2.44-0.13-3.51-0.4c-1.07-0.27-2-0.69-2.81-1.28
		s-1.43-1.34-1.88-2.28c-0.45-0.93-0.68-2.07-0.68-3.41v-11.57h-4.81v-6.01h4.81v-7.21h7.51v7.21h6.61V609.14z"/>
	<path class="st1" d="M637.42,589.61v16.83h0.1c0.17-0.47,0.45-0.93,0.85-1.4c0.4-0.47,0.88-0.89,1.45-1.25
		c0.57-0.37,1.24-0.67,2-0.9c0.77-0.23,1.6-0.35,2.5-0.35c1.9,0,3.44,0.29,4.61,0.88c1.17,0.58,2.08,1.39,2.73,2.43
		c0.65,1.04,1.09,2.25,1.33,3.66c0.23,1.4,0.35,2.92,0.35,4.56v13.43h-7.51v-11.92c0-0.7-0.03-1.43-0.08-2.18
		c-0.05-0.75-0.2-1.44-0.45-2.08c-0.25-0.63-0.63-1.15-1.15-1.55c-0.52-0.4-1.26-0.6-2.23-0.6c-0.97,0-1.75,0.18-2.35,0.53
		c-0.6,0.35-1.06,0.82-1.38,1.4c-0.32,0.58-0.53,1.24-0.63,1.98c-0.1,0.74-0.15,1.5-0.15,2.3v12.12h-7.51v-37.87H637.42z"/>
	<path class="st1" d="M681.71,623.27c-1.2,1.54-2.72,2.72-4.56,3.56c-1.84,0.83-3.74,1.25-5.71,1.25c-1.87,0-3.63-0.3-5.29-0.9
		c-1.65-0.6-3.09-1.46-4.31-2.58c-1.22-1.12-2.18-2.46-2.88-4.03c-0.7-1.57-1.05-3.32-1.05-5.26c0-1.94,0.35-3.69,1.05-5.26
		c0.7-1.57,1.66-2.91,2.88-4.03c1.22-1.12,2.66-1.98,4.31-2.58c1.65-0.6,3.41-0.9,5.29-0.9c1.74,0,3.31,0.3,4.73,0.9
		c1.42,0.6,2.62,1.46,3.61,2.58c0.98,1.12,1.74,2.46,2.28,4.03c0.53,1.57,0.8,3.32,0.8,5.26v2.35h-17.43
		c0.3,1.44,0.95,2.58,1.95,3.43s2.24,1.28,3.71,1.28c1.23,0,2.28-0.28,3.13-0.83c0.85-0.55,1.59-1.26,2.23-2.13L681.71,623.27z
		 M675.35,612.55c0.03-1.27-0.38-2.35-1.25-3.26c-0.87-0.9-1.99-1.35-3.36-1.35c-0.84,0-1.57,0.13-2.2,0.4
		c-0.63,0.27-1.18,0.61-1.63,1.03c-0.45,0.42-0.8,0.9-1.05,1.45c-0.25,0.55-0.39,1.13-0.43,1.73H675.35z"/>
	<path class="st1" d="M314.65,643.76h28.9v8.65h-19.53v7.93h18.45v8.65h-18.45v8.65h20.61v8.65h-29.98V643.76z"/>
	<path class="st1" d="M362.71,664.07l-14.06-20.31h11.78l9.07,14.9l8.71-14.9h11.36l-13.76,20.13l15.38,22.41h-11.78l-10.39-17.12
		l-10.09,17.12h-11.12L362.71,664.07z"/>
	<path class="st1" d="M395.52,643.76h15.8c2.2,0,4.29,0.2,6.25,0.6c1.96,0.4,3.67,1.09,5.14,2.07c1.46,0.98,2.62,2.3,3.49,3.97
		c0.86,1.66,1.29,3.76,1.29,6.28c0,2.48-0.4,4.57-1.2,6.25c-0.8,1.68-1.9,3.02-3.3,4.03c-1.4,1-3.06,1.71-4.99,2.13
		c-1.92,0.42-4.01,0.63-6.25,0.63h-6.85v16.58h-9.37V643.76z M404.89,661.79h6.25c0.84,0,1.65-0.08,2.43-0.24
		c0.78-0.16,1.48-0.43,2.1-0.81c0.62-0.38,1.12-0.9,1.5-1.56c0.38-0.66,0.57-1.49,0.57-2.49c0-1.08-0.25-1.95-0.75-2.61
		c-0.5-0.66-1.14-1.17-1.92-1.53s-1.65-0.59-2.61-0.69c-0.96-0.1-1.88-0.15-2.76-0.15h-4.81V661.79z"/>
	<path class="st1" d="M433.73,643.76h28.9v8.65H443.1v7.93h18.45v8.65H443.1v8.65h20.61v8.65h-29.98V643.76z"/>
	<path class="st1" d="M471.22,643.76h16.46c2.16,0,4.22,0.21,6.16,0.63c1.94,0.42,3.64,1.12,5.11,2.1c1.46,0.98,2.62,2.3,3.49,3.97
		c0.86,1.66,1.29,3.74,1.29,6.22c0,3-0.78,5.56-2.34,7.66c-1.56,2.1-3.85,3.43-6.85,4l10.82,17.97h-11.24l-8.89-17h-4.63v17h-9.37
		V643.76z M480.6,661.36h5.53c0.84,0,1.73-0.03,2.67-0.09c0.94-0.06,1.79-0.24,2.55-0.54c0.76-0.3,1.39-0.77,1.89-1.41
		c0.5-0.64,0.75-1.54,0.75-2.7c0-1.08-0.22-1.94-0.66-2.58c-0.44-0.64-1-1.13-1.68-1.47c-0.68-0.34-1.46-0.57-2.34-0.69
		c-0.88-0.12-1.74-0.18-2.58-0.18h-6.13V661.36z"/>
	<path class="st1" d="M510.04,643.76h9.37v42.54h-9.37V643.76z"/>
	<path class="st1" d="M528.3,643.76h28.9v8.65h-19.53v7.93h18.45v8.65h-18.45v8.65h20.61v8.65H528.3V643.76z"/>
	<path class="st1" d="M565.79,643.76h12.74l18.08,29.56h0.12v-29.56h9.37v42.54h-12.26l-18.57-30.28h-0.12v30.28h-9.37V643.76z"/>
	<path class="st1" d="M642.58,654.82c-0.92-1.12-2.05-1.98-3.39-2.58c-1.34-0.6-2.89-0.9-4.66-0.9c-1.76,0-3.4,0.34-4.9,1.02
		c-1.5,0.68-2.8,1.63-3.91,2.85c-1.1,1.22-1.96,2.67-2.58,4.36c-0.62,1.68-0.93,3.51-0.93,5.47c0,2,0.31,3.84,0.93,5.5
		c0.62,1.66,1.47,3.1,2.55,4.33c1.08,1.22,2.35,2.17,3.82,2.85c1.46,0.68,3.03,1.02,4.72,1.02c1.92,0,3.63-0.4,5.11-1.2
		c1.48-0.8,2.7-1.92,3.66-3.36l7.81,5.83c-1.8,2.52-4.09,4.39-6.85,5.59c-2.76,1.2-5.61,1.8-8.53,1.8c-3.33,0-6.39-0.52-9.19-1.56
		c-2.8-1.04-5.23-2.53-7.27-4.48c-2.04-1.94-3.63-4.3-4.78-7.06c-1.14-2.76-1.71-5.85-1.71-9.25c0-3.4,0.57-6.49,1.71-9.25
		c1.14-2.76,2.73-5.12,4.78-7.06c2.04-1.94,4.47-3.43,7.27-4.48c2.8-1.04,5.87-1.56,9.19-1.56c1.2,0,2.45,0.11,3.76,0.33
		c1.3,0.22,2.58,0.57,3.84,1.05c1.26,0.48,2.47,1.12,3.64,1.92c1.16,0.8,2.2,1.78,3.12,2.94L642.58,654.82z"/>
	<path class="st1" d="M656.28,643.76h28.9v8.65h-19.53v7.93h18.45v8.65h-18.45v8.65h20.61v8.65h-29.98V643.76z"/>
</g>
</svg>
