<?xml version="1.0" encoding="utf-8"?>
<!-- Generator: Adobe Illustrator 23.0.3, SVG Export Plug-In . SVG Version: 6.00 Build 0)  -->
<svg version="1.1" id="Layer_1" xmlns="http://www.w3.org/2000/svg" xmlns:xlink="http://www.w3.org/1999/xlink" x="0px" y="0px"
	 viewBox="0 0 1000 1000" style="enable-background:new 0 0 1000 1000;" xml:space="preserve">
<style type="text/css">
	.st0{fill:#CE9524;}
	.st1{fill:#192C4C;}
</style>
<g>
	<path class="st0" d="M407.73,371.77c-1.06-0.23-2.14-0.27-3.21-0.11c-10.73-1.25-18.83-10.33-18.85-21.14
		c0-5.18-4.2-9.38-9.38-9.38c-5.18,0-9.38,4.2-9.38,9.38c0.03,18.04,12.09,33.84,29.49,38.62v9.38c0,5.18,4.2,9.38,9.38,9.38
		s9.38-4.2,9.38-9.38v-8.81c20.08-4.2,33.72-22.9,31.61-43.31c-2.11-20.4-19.3-35.91-39.82-35.91c-11.76,0-21.29-9.53-21.29-21.29
		c0-11.76,9.53-21.29,21.29-21.29c11.76,0,21.29,9.53,21.29,21.29c0,5.18,4.2,9.38,9.38,9.38c5.18,0,9.38-4.2,9.38-9.38
		c-0.03-18.94-13.3-35.28-31.83-39.19v-8.53c0-5.18-4.2-9.38-9.38-9.38s-9.38,4.2-9.38,9.38v9.11
		c-19.35,5.28-31.8,24.07-29.13,43.94c2.66,19.88,19.62,34.71,39.68,34.71c11.6,0,21.06,9.29,21.27,20.88
		C428.44,361.72,419.32,371.35,407.73,371.77z"/>
	<path class="st0" d="M271,320.58c0,75.08,60.87,135.95,135.95,135.95S542.9,395.67,542.9,320.58s-60.87-135.95-135.95-135.95
		C331.9,184.72,271.09,245.54,271,320.58z M406.95,203.39c64.73,0,117.2,52.47,117.2,117.2s-52.47,117.2-117.2,117.2
		s-117.2-52.47-117.2-117.2C289.82,255.89,342.25,203.46,406.95,203.39z"/>
	<g>
		<path class="st1" d="M599.17,738.05h-66.15c-12.38,0-22.46-10.08-22.46-22.46v-2.97c-9.42,0.48-19.07,0.37-29.16-0.42v3.39
			c0,12.39-10.08,22.46-22.46,22.46H393c-11.71,0-21.56-9.17-22.43-20.87l-0.03-1.59v-4.63c-0.47-9.5-3.53-32.98-21.55-51.55
			c-12.95-13.24-24.45-30.54-34.13-51.4c-5.88-11.47-10.36-23.36-13.3-35.35c-0.13-0.48-0.24-0.94-0.31-1.37
			c-2.9-12.11-4.37-24.5-4.37-36.82c0-23.33,4.96-45.89,14.74-67.06l6.09-13.18l11.52,8.84c24.64,18.91,54.09,28.9,85.17,28.9
			c64.98,0,121.01-44.1,136.25-107.24c2.83-11.72,9.39-22.53,18.48-30.44c14.43-12.59,32.83-20.37,54.7-23.11
			c9.07-1.14,17.8,2.95,22.73,10.65c4.96,7.75,5.02,17.43,0.16,25.26c-8.43,13.51-10.98,26.45-7.59,38.47
			c23.48,19.83,41.13,44.24,51.52,71.18h6.52c17.23,0,31.52,14.1,31.85,31.42l0,49.57c0,17.45-14.2,31.64-31.64,31.64h-5.54
			c-9.72,26.49-26.43,50.76-48.68,70.6c-0.31,0.29-0.62,0.55-0.93,0.79l-2.07,1.78c-17.23,15.63-18.43,33.56-18.5,37l0,16.05
			C621.64,727.98,611.56,738.05,599.17,738.05z M533.78,714.83h64.63v-15.52c0.14-7.42,2.44-32.6,26.26-54.11l2.23-1.92
			c0.26-0.24,0.52-0.46,0.79-0.66c21.36-19.05,36.81-42.66,44.69-68.28l2.52-8.2h22.45c4.64,0,8.42-3.78,8.42-8.42v-49.35
			c-0.09-4.55-3.96-8.42-8.63-8.42h-23.14l-2.61-8.01c-8.86-27.15-26.25-51.75-50.3-71.15l-4.32-3.48v-5.28
			c-0.02-0.11-0.04-0.22-0.07-0.33c-5.1-18.28-1.55-37.94,10.27-56.9c0.11-0.17,0.1-0.22,0.08-0.28c-0.04-0.16-0.16-0.29-0.21-0.32
			c-17.34,2.17-31.59,8.09-42.47,17.59c-5.49,4.78-9.46,11.32-11.17,18.39c-17.77,73.6-83.07,125.01-158.82,125.01
			c-31.16,0-60.92-8.62-86.92-25.06c-4.9,14.24-7.37,29.09-7.37,44.33c0,10.67,1.29,21.4,3.84,31.9l0.33,1.43
			c2.53,10.08,6.34,20.1,11.34,29.8l0.21,0.44c8.59,18.55,18.62,33.75,29.79,45.17c23.76,24.48,27.59,54.98,28.13,66.96l0.01,0.53
			v4.15h64.42v-28.74l13.11,1.71c9.59,1.25,18.95,1.88,27.82,1.88c7.39,0,14.52-0.39,21.79-1.18l12.88-1.41V714.83z"/>
	</g>
	<circle class="st1" cx="614.73" cy="477.23" r="21.93"/>
</g>
</svg>
