<?xml version="1.0" encoding="utf-8"?>
<!-- Generator: Adobe Illustrator 23.0.3, SVG Export Plug-In . SVG Version: 6.00 Build 0)  -->
<svg version="1.1" id="Layer_1" xmlns="http://www.w3.org/2000/svg" xmlns:xlink="http://www.w3.org/1999/xlink" x="0px" y="0px"
	 viewBox="0 0 1000 1000" style="enable-background:new 0 0 1000 1000;" xml:space="preserve">
<style type="text/css">
	.st0{fill:#CE9524;}
	.st1{fill:#192C4C;}
</style>
<g>
	<g>
		<g>
			<path class="st0" d="M497.34,277.27c-0.01-3.1-1.97-5.79-4.74-6.87l-206.84-83.76c-4.02-3.47-9.09-5.37-14.44-5.37
				c-7.68,0-14.83,4.06-18.84,10.51L122.69,271c-2.19,1.34-3.54,3.78-3.54,6.31v29.55c0,4.08,3.31,7.39,7.39,7.39h7.39v36.93
				c0,4.08,3.31,7.39,7.39,7.39h63.52c4.08,0,7.39-3.31,7.39-7.39v-36.93H227c0,7.52,0,423.2,0,428.11h-22.16
				c-12.22,0-22.16,9.94-22.16,22.16v46.53c0,4.08,3.31,7.39,7.39,7.39h162.5c4.08,0,7.39-3.31,7.39-7.39v-46.53
				c0-12.22-9.94-22.16-22.16-22.16h-22.16c0-7.7,0-420.51,0-428.11h107.84v30.06c0,1.96,0.78,3.84,2.16,5.22l12.61,12.61v108.96
				c-8.6,3.05-14.77,11.26-14.77,20.89c0,12.22,9.94,22.16,22.16,22.16c8.54,0,16.41-4.99,20.05-12.72
				c1.74-3.69,0.16-8.09-3.53-9.83c-3.69-1.74-8.09-0.16-9.83,3.53c-1.21,2.58-3.84,4.24-6.69,4.24c-4.07,0-7.39-3.31-7.39-7.39
				s3.31-7.39,7.39-7.39c4.08,0,7.39-3.31,7.39-7.39V362.13l12.61-12.61c1.38-1.38,2.16-3.26,2.16-5.22v-30.06h22.16
				c4.08,0,7.39-3.31,7.39-7.39V277.3C497.34,277.29,497.34,277.28,497.34,277.27z M263.93,203.44c0-4.21,3.46-7.39,7.39-7.39
				c4.06,0,7.39,3.29,7.39,7.39v51.71h-14.77V203.44z M256.54,269.91c4.2,0,38.25,0,44.32,0c0,5.29,0,44.94,0,50.48l-49.01-50.48
				H256.54z M251.85,422.08h49.01v309.45L251.85,422.08z M290.78,742.35h-49.01V432.9L290.78,742.35z M241.77,407.3v-50.48
				l49.01,50.48H241.77z M251.85,346h49.01v50.48L251.85,346z M241.77,331.22c0-4.69,0-45,0-50.48l49.01,50.48H241.77z
				 M249.16,211.12v44.02h-14.77c-0.03,0-0.07,0-0.1,0.01c-0.09,0-0.19,0.01-0.28,0.01c-0.1,0.01-0.19,0.01-0.29,0.02
				c-0.07,0.01-0.15,0.02-0.22,0.03c-0.04,0-0.07,0-0.11,0.01l-72.81,9.97L249.16,211.12z M197.45,343.78H148.7v-29.55h48.75V343.78
				z M133.93,299.46v-15.72L227,271v28.46C194.5,299.46,205.6,299.46,133.93,299.46z M337.79,757.12c4.07,0,7.39,3.31,7.39,7.39
				v39.15H197.45v-39.15c0-4.07,3.31-7.39,7.39-7.39C208.39,757.12,334.24,757.12,337.79,757.12z M308.85,255.17
				c-0.1-0.01-0.19,0-0.29-0.01c-0.11-0.01-0.21-0.02-0.31-0.02h-14.77v-49.44l148.96,60.32L308.85,255.17z M453.02,341.24
				l-7.39,7.39l-7.39-7.39v-27h14.77V341.24z M482.57,299.46H315.63v-28.92l166.93,13.57V299.46z"/>
		</g>
	</g>
	<g>
		<g>
			<path class="st0" d="M824.86,616.84h26.58v13.29h-26.58V616.84z"/>
			<path class="st0" d="M838.15,590.26c-7.34,0.01-13.28,5.95-13.29,13.29h26.58C851.43,596.21,845.49,590.27,838.15,590.26z"/>
			<path class="st0" d="M758.4,590.26c-7.34,0.01-13.28,5.95-13.29,13.29h26.58C771.68,596.21,765.74,590.27,758.4,590.26z"/>
			<path class="st0" d="M598.91,590.26c-7.34,0.01-13.28,5.95-13.29,13.29h26.58C612.19,596.21,606.25,590.27,598.91,590.26z"/>
			<path class="st0" d="M745.11,616.84h26.58v13.29h-26.58V616.84z"/>
			<path class="st1" d="M559.04,802.92H685.3v-39.87h-19.94c-3.67,0-6.65-2.98-6.65-6.65v-13.29c0-33.03,26.78-59.81,59.81-59.81
				c33.03,0,59.81,26.78,59.81,59.81v13.29c0,3.67-2.98,6.65-6.65,6.65h-19.94v39.87h126.26V670.01H559.04V802.92z M798.28,689.94
				c0-3.67,2.98-6.65,6.65-6.65h53.16c3.67,0,6.65,2.98,6.65,6.65v93.04c0,3.67-2.98,6.65-6.65,6.65h-53.16
				c-3.67,0-6.65-2.98-6.65-6.65V689.94z M572.33,689.94c0-3.67,2.98-6.65,6.65-6.65h53.16c3.67,0,6.65,2.98,6.65,6.65v93.04
				c0,3.67-2.98,6.65-6.65,6.65h-53.16c-3.67,0-6.65-2.98-6.65-6.65V689.94z"/>
			<path class="st0" d="M665.37,616.84h26.58v13.29h-26.58V616.84z"/>
			<path class="st0" d="M678.66,590.26c-7.34,0.01-13.28,5.95-13.29,13.29h26.58C691.94,596.21,685.99,590.27,678.66,590.26z"/>
			<path class="st0" d="M811.57,696.59h13.29v79.75h-13.29V696.59z"/>
			<path class="st0" d="M698.59,763.04h13.29v39.87h-13.29V763.04z"/>
			<path class="st0" d="M725.18,763.04h13.29v39.87h-13.29V763.04z"/>
			<path class="st0" d="M718.53,696.61c-3.54,1.26-12.18,18.97-13.19,53.14h26.38C730.71,715.58,722.07,697.87,718.53,696.61z"/>
			<path class="st0" d="M672.01,743.11v6.65h20.03c0.46-15.89,2.56-30.7,6.02-42.25c0.8-2.66,1.65-5.1,2.57-7.32
				C683.31,707.41,672.03,724.34,672.01,743.11z"/>
			<path class="st0" d="M585.62,696.59h13.29v79.75h-13.29V696.59z"/>
			<path class="st0" d="M612.2,696.59h13.29v79.75H612.2V696.59z"/>
			<path class="st0" d="M765.05,743.11c-0.02-18.77-11.3-35.69-28.62-42.93c0.91,2.23,1.77,4.67,2.57,7.32
				c3.47,11.56,5.57,26.37,6.02,42.25h20.03V743.11z"/>
			<path class="st0" d="M838.15,696.59h13.29v79.75h-13.29V696.59z"/>
			<path class="st0" d="M585.62,616.84h26.58v13.29h-26.58V616.84z"/>
			<path class="st0" d="M745.11,510.51h26.58v13.29h-26.58V510.51z"/>
			<path class="st0" d="M585.62,510.51h26.58v13.29h-26.58V510.51z"/>
			<path class="st0" d="M665.37,510.51h26.58v13.29h-26.58V510.51z"/>
			<path class="st0" d="M678.66,483.93c-7.34,0.01-13.28,5.95-13.29,13.29h26.58C691.94,489.89,685.99,483.94,678.66,483.93z"/>
			<path class="st0" d="M598.91,483.93c-7.34,0.01-13.28,5.95-13.29,13.29h26.58C612.19,489.89,606.25,483.94,598.91,483.93z"/>
			<path class="st1" d="M559.04,550.39h318.98v-93.04H559.04V550.39z M811.57,497.22c0-14.68,11.9-26.58,26.58-26.58
				c14.68,0,26.58,11.9,26.58,26.58v33.23c0,3.67-2.98,6.65-6.65,6.65h-39.87c-3.67,0-6.65-2.98-6.65-6.65V497.22z M731.82,497.22
				c0-14.68,11.9-26.58,26.58-26.58c14.68,0,26.58,11.9,26.58,26.58v33.23c0,3.67-2.98,6.65-6.65,6.65h-39.87
				c-3.67,0-6.65-2.98-6.65-6.65V497.22z M652.07,497.22c0-14.68,11.9-26.58,26.58-26.58c14.68,0,26.58,11.9,26.58,26.58v33.23
				c0,3.67-2.98,6.65-6.65,6.65h-39.87c-3.67,0-6.65-2.98-6.65-6.65V497.22z M572.33,497.22c0-14.68,11.9-26.58,26.58-26.58
				s26.58,11.9,26.58,26.58v33.23c0,3.67-2.98,6.65-6.65,6.65h-39.87c-3.67,0-6.65-2.98-6.65-6.65V497.22z"/>
			<path class="st1" d="M570.41,430.77l-14.35,13.29H881l-14.35-13.29H570.41z"/>
			<path class="st0" d="M758.4,483.93c-7.34,0.01-13.28,5.95-13.29,13.29h26.58C771.68,489.89,765.74,483.94,758.4,483.93z"/>
			<path class="st0" d="M838.15,483.93c-7.34,0.01-13.28,5.95-13.29,13.29h26.58C851.43,489.89,845.49,483.94,838.15,483.93z"/>
			<path class="st0" d="M824.86,510.51h26.58v13.29h-26.58V510.51z"/>
			<path class="st1" d="M559.04,656.72h318.98v-93.04H559.04V656.72z M811.57,603.55c0-14.68,11.9-26.58,26.58-26.58
				c14.68,0,26.58,11.9,26.58,26.58v33.23c0,3.67-2.98,6.65-6.65,6.65h-39.87c-3.67,0-6.65-2.98-6.65-6.65V603.55z M731.82,603.55
				c0-14.68,11.9-26.58,26.58-26.58c14.68,0,26.58,11.9,26.58,26.58v33.23c0,3.67-2.98,6.65-6.65,6.65h-39.87
				c-3.67,0-6.65-2.98-6.65-6.65V603.55z M652.07,603.55c0-14.68,11.9-26.58,26.58-26.58c14.68,0,26.58,11.9,26.58,26.58v33.23
				c0,3.67-2.98,6.65-6.65,6.65h-39.87c-3.67,0-6.65-2.98-6.65-6.65V603.55z M572.33,603.55c0-14.68,11.9-26.58,26.58-26.58
				s26.58,11.9,26.58,26.58v33.23c0,3.67-2.98,6.65-6.65,6.65h-39.87c-3.67,0-6.65-2.98-6.65-6.65V603.55z"/>
		</g>
	</g>
</g>
</svg>
