<?xml version="1.0" encoding="utf-8"?>
<!-- Generator: Adobe Illustrator 23.0.3, SVG Export Plug-In . SVG Version: 6.00 Build 0)  -->
<svg version="1.1" id="Layer_1" xmlns="http://www.w3.org/2000/svg" xmlns:xlink="http://www.w3.org/1999/xlink" x="0px" y="0px"
	 viewBox="0 0 1000 1000" style="enable-background:new 0 0 1000 1000;" xml:space="preserve">
<style type="text/css">
	.st0{fill:#CE9524;}
	.st1{fill:#192C4C;}
</style>
<path class="st0" d="M506.3,525.53c-1.05-0.23-2.13-0.27-3.2-0.11c-10.69-1.24-18.75-10.29-18.77-21.04c0-5.15-4.18-9.33-9.33-9.33
	s-9.33,4.18-9.33,9.33c0.03,17.96,12.04,33.69,29.36,38.45v9.33c0,5.15,4.18,9.33,9.33,9.33s9.33-4.18,9.33-9.33v-8.77
	c19.99-4.18,33.57-22.8,31.47-43.11c-2.11-20.31-19.22-35.75-39.64-35.75c-11.7,0-21.19-9.49-21.19-21.19s9.49-21.19,21.19-21.19
	s21.19,9.49,21.19,21.19c0,5.15,4.18,9.33,9.33,9.33c5.15,0,9.33-4.18,9.33-9.33c-0.03-18.86-13.24-35.12-31.69-39.02v-8.5
	c0-5.15-4.18-9.33-9.33-9.33s-9.33,4.18-9.33,9.33v9.06c-19.26,5.26-31.66,23.96-29,43.75c2.65,19.79,19.54,34.56,39.5,34.55
	c11.55,0,20.97,9.25,21.18,20.79C526.92,515.52,517.84,525.11,506.3,525.53z"/>
<path class="st0" d="M370.18,474.57c0,74.75,60.6,135.35,135.35,135.35s135.35-60.6,135.35-135.35s-60.6-135.35-135.35-135.35
	C430.81,339.3,370.27,399.85,370.18,474.57z M505.53,357.89c64.44,0,116.68,52.24,116.68,116.68s-52.24,116.68-116.68,116.68
	s-116.68-52.24-116.68-116.68C388.92,410.16,441.12,357.96,505.53,357.89z"/>
<path class="st1" d="M686.89,632.93l-73.11,34.55c-10.09-18.78-29.46-30.73-50.77-31.33l-67.5-1.85
	c-10.69-0.31-21.17-3.01-30.68-7.92l-6.87-3.56c-35.17-18.33-77.08-18.28-112.21,0.12l0.43-15.56c0.14-5.15-3.92-9.45-9.07-9.59
	l-74.01-2.04c-5.15-0.14-9.44,3.92-9.58,9.07l-4.47,162.42c-0.14,5.15,3.92,9.45,9.07,9.59l74.01,2.04h0.26
	c5.06,0,9.2-4.02,9.33-9.08l0.21-7.77l19.23-10.3c7.55-4.06,16.37-5.03,24.61-2.69l114.82,32.23c0.2,0.06,0.4,0.1,0.61,0.15
	c8.3,1.74,16.76,2.61,25.23,2.6c17.96,0.01,35.7-3.86,52.02-11.35c0.4-0.18,0.79-0.4,1.16-0.64l166.48-107.68
	c4.15-2.68,5.49-8.13,3.06-12.43C736.79,629.96,709.38,621.61,686.89,632.93z M267.96,758.42l3.96-143.76l55.35,1.52l-3.96,143.76
	L267.96,758.42z M570.05,755.98c-20.28,9.15-42.92,11.68-64.72,7.22l-114.51-32.14c-12.89-3.64-26.68-2.13-38.47,4.21l-9.83,5.26
	l2.63-95.58c31.14-20.71,71.07-22.84,104.23-5.56l6.87,3.56c12,6.2,25.24,9.62,38.75,10.01l67.5,1.85
	c18.96,0.55,35.06,14.05,38.91,32.62l-100.54-2.78c-5.15-0.14-9.44,3.92-9.59,9.07c-0.14,5.15,3.92,9.45,9.07,9.59l110.95,3.05h0.26
	c5.05,0,9.19-4.03,9.32-9.08c0.11-4.06-0.19-8.12-0.9-12.11l74.99-35.43c0.07-0.03,0.15-0.07,0.22-0.1
	c10.64-5.38,23.5-3.58,32.25,4.52L570.05,755.98z"/>
<path class="st0" d="M514.86,312.98v-88.67c0-5.15-4.18-9.33-9.33-9.33c-5.15,0-9.33,4.18-9.33,9.33v88.67
	c0,5.15,4.18,9.33,9.33,9.33C510.68,322.31,514.86,318.14,514.86,312.98z"/>
<path class="st0" d="M584.86,312.98v-42c0-5.15-4.18-9.33-9.33-9.33c-5.15,0-9.33,4.18-9.33,9.33v42c0,5.15,4.18,9.33,9.33,9.33
	C580.68,322.31,584.86,318.14,584.86,312.98z"/>
<path class="st0" d="M444.86,312.98v-42c0-5.15-4.18-9.33-9.33-9.33c-5.15,0-9.33,4.18-9.33,9.33v42c0,5.15,4.18,9.33,9.33,9.33
	C440.68,322.31,444.86,318.14,444.86,312.98z"/>
</svg>
