<?xml version="1.0" encoding="utf-8"?>
<!-- Generator: Adobe Illustrator 23.0.3, SVG Export Plug-In . SVG Version: 6.00 Build 0)  -->
<svg version="1.1" id="Layer_1" xmlns="http://www.w3.org/2000/svg" xmlns:xlink="http://www.w3.org/1999/xlink" x="0px" y="0px"
	 viewBox="0 0 1000 1000" style="enable-background:new 0 0 1000 1000;" xml:space="preserve">
<style type="text/css">
	.st0{fill:#192C4C;}
	.st1{fill:#CE9524;}
</style>
<g>
	<path class="st0" d="M380.84,294.38l199.33-54.41l-10.56-21.34c-6.91-13.87-23.75-19.6-37.62-12.69l-178.44,88.43H380.84z"/>
	<path class="st1" d="M642.05,241.55c-2.47,0-4.94,0.34-7.41,1.01l-46.83,12.8L444.8,294.38h162.32h70.75l-8.76-32.12
		C665.74,249.74,654.4,241.55,642.05,241.55z"/>
	<g>
		<path class="st0" d="M707.12,330.08c3.21,0,6.23,1.25,8.5,3.53c2.25,2.26,3.49,5.26,3.47,8.5v60.6h-7.31H568.49
			c-2.55,0-5.11,0.15-7.52,0.44c-14.41,1.67-27.95,8.37-38.11,18.84c-11.66,11.97-18.08,27.75-18.08,44.43v19.31v8.7v8.7v25.72
			c0,35.16,28.61,63.77,63.77,63.77h150.55v62.28c0,6.63-5.4,12.03-12.03,12.03H292.07c-6.63,0-12.03-5.4-12.03-12.03V377.48v-32
			v-3.37c0-0.95,0.16-2.06,0.46-3.19c0.41-1.53,1.17-3,2.2-4.3c2.3-2.88,5.74-4.53,9.42-4.53h16.73h5h26.95h32h244.08h66.42h8.7h8.7
			H707.12 M707.12,314.03h-6.4h-8.7h-8.7h-66.42H372.82h-32h-26.95h-5h-16.73c-8.87,0-16.79,4.1-21.95,10.56
			c-2.36,2.98-4.15,6.4-5.17,10.16c-0.62,2.36-1.01,4.83-1.01,7.36v3.37v32v277.43c0,15.5,12.58,28.07,28.07,28.07h414.99
			c15.5,0,28.07-12.58,28.07-28.07v-78.33H568.55c-26.33,0-47.73-21.39-47.73-47.73v-25.72v-8.7v-8.7v-19.31
			c0-12.91,5.17-24.65,13.53-33.24c7.41-7.64,17.35-12.8,28.47-14.09c1.85-0.22,3.76-0.34,5.67-0.34h143.29h8.7h8.7h5.95v-76.64
			C735.2,326.61,722.62,314.03,707.12,314.03L707.12,314.03z"/>
	</g>
	<path class="st0" d="M754.85,445.59c-2.81-2.58-6.12-4.55-9.83-5.84c-2.86-0.95-5.9-1.52-9.1-1.52h-0.73h-0.56h-8.7h-31.39h-126
		c-15.5,0-28.07,12.58-28.07,28.07v13.98v8.7v8.7v31.11c0,15.5,12.58,28.07,28.07,28.07H735.2h0.73c3.2,0,6.23-0.56,9.1-1.52
		c3.71-1.24,7.02-3.26,9.83-5.84c5.61-5.11,9.15-12.52,9.15-20.72v-62.49C764,458.11,760.46,450.7,754.85,445.59z M627.17,503.14
		c0,7.75-6.29,14.04-14.04,14.04h-9.32c-7.75,0-14.04-6.29-14.04-14.04v-9.32c0-4.49,2.08-8.48,5.39-11.01
		c2.41-1.85,5.39-3.03,8.65-3.03h2.36h6.96c7.75,0,14.04,6.29,14.04,14.04V503.14L627.17,503.14z"/>
</g>
</svg>
